<svg xmlns="http://www.w3.org/2000/svg" width="805" height="600"><rect width="805" height="600" x="0" y="0" fill="#FFFFFF" id="backgorund"/><g id="viz"><g transform="translate(0,0)"><g transform="translate(10,20)"><g><path fill="#d62728" d="M0,41.34545454545457C19.625,41.34545454545457,19.625,119.76363636363634,39.25,119.76363636363634C58.875,119.76363636363634,58.875,3.181818181818185,78.5,3.181818181818185C98.125,3.181818181818185,98.125,15.40000000000002,117.75,15.40000000000002C137.375,15.40000000000002,137.375,30.672727272727265,157,30.672727272727265C176.625,30.672727272727265,176.625,42.38181818181816,196.25,42.38181818181816C215.875,42.38181818181816,215.875,34.745454545454564,235.5,34.745454545454564C255.125,34.745454545454564,255.125,84.63636363636367,274.75,84.63636363636367C294.375,84.63636363636367,294.375,77.00000000000001,314,77.00000000000001C333.625,77.00000000000001,333.625,39.83636363636363,353.25,39.83636363636363C372.875,39.83636363636363,372.875,40.85454545454545,392.5,40.85454545454545C412.125,40.85454545454545,412.125,40.34545454545457,431.75000000000006,40.34545454545457C451.375,40.34545454545457,451.375,41.36363636363633,471,41.36363636363633C490.625,41.36363636363633,490.625,41.872727272727275,510.25,41.872727272727275C529.875,41.872727272727275,529.875,40.85454545454545,549.5,40.85454545454545C569.125,40.85454545454545,569.125,41.36363636363633,588.75,41.36363636363633C608.375,41.36363636363633,608.375,41.36363636363633,628,41.36363636363633C647.625,41.36363636363633,647.625,43.890909090909105,667.25,43.890909090909105C686.875,43.890909090909105,686.875,43.38181818181816,706.5,43.38181818181816C726.125,43.38181818181816,726.125,42.872727272727275,745.75,42.872727272727275C765.375,42.872727272727275,765.375,43.38181818181816,785,43.38181818181816L785,293.3454545454546C765.375,293.3454545454546,765.375,303.0181818181818,745.75,303.0181818181818C726.125,303.0181818181818,726.125,300.4727272727273,706.5,300.4727272727273C686.875,300.4727272727273,686.875,311.1636363636364,667.25,311.1636363636364C647.625,311.1636363636364,647.625,320.8545454545455,628,320.8545454545455C608.375,320.8545454545455,608.375,324.4181818181818,588.75,324.4181818181818C569.125,324.4181818181818,569.125,329.50909090909084,549.5,329.50909090909084C529.875,329.50909090909084,529.875,335.6181818181818,510.25,335.6181818181818C490.625,335.6181818181818,490.625,335.10909090909087,471,335.10909090909087C451.375,335.10909090909087,451.375,334.59999999999997,431.75000000000006,334.59999999999997C412.125,334.59999999999997,412.125,334.0909090909091,392.5,334.0909090909091C372.875,334.0909090909091,372.875,334.0909090909091,353.25,334.0909090909091C333.625,334.0909090909091,333.625,375.8363636363636,314,375.8363636363636C294.375,375.8363636363636,294.375,388.5636363636363,274.75,388.5636363636363C255.125,388.5636363636363,255.125,343.76363636363635,235.5,343.76363636363635C215.875,343.76363636363635,215.875,350.89090909090913,196.25,350.89090909090913C176.625,350.89090909090913,176.625,341.72727272727275,157,341.72727272727275C137.375,341.72727272727275,137.375,330.52727272727276,117.75,330.52727272727276C98.125,330.52727272727276,98.125,321.8727272727273,78.5,321.8727272727273C58.875,321.8727272727273,58.875,444.56363636363636,39.25,444.56363636363636C19.625,444.56363636363636,19.625,369.19999999999993,0,369.19999999999993Z"><title>fb</title></path><path fill="#e377c2" d="M0,370.19999999999993C19.625,370.19999999999993,19.625,445.56363636363636,39.25,445.56363636363636C58.875,445.56363636363636,58.875,322.8727272727273,78.5,322.8727272727273C98.125,322.8727272727273,98.125,331.52727272727276,117.75,331.52727272727276C137.375,331.52727272727276,137.375,342.72727272727275,157,342.72727272727275C176.625,342.72727272727275,176.625,351.89090909090913,196.25,351.89090909090913C215.875,351.89090909090913,215.875,344.76363636363635,235.5,344.76363636363635C255.125,344.76363636363635,255.125,389.5636363636363,274.75,389.5636363636363C294.375,389.5636363636363,294.375,376.8363636363636,314,376.8363636363636C333.625,376.8363636363636,333.625,335.0909090909091,353.25,335.0909090909091C372.875,335.0909090909091,372.875,335.0909090909091,392.5,335.0909090909091C412.125,335.0909090909091,412.125,335.59999999999997,431.75000000000006,335.59999999999997C451.375,335.59999999999997,451.375,336.10909090909087,471,336.10909090909087C490.625,336.10909090909087,490.625,336.6181818181818,510.25,336.6181818181818C529.875,336.6181818181818,529.875,330.50909090909084,549.5,330.50909090909084C569.125,330.50909090909084,569.125,325.4181818181818,588.75,325.4181818181818C608.375,325.4181818181818,608.375,321.8545454545455,628,321.8545454545455C647.625,321.8545454545455,647.625,312.1636363636364,667.25,312.1636363636364C686.875,312.1636363636364,686.875,301.4727272727273,706.5,301.4727272727273C726.125,301.4727272727273,726.125,304.0181818181818,745.75,304.0181818181818C765.375,304.0181818181818,765.375,294.3454545454546,785,294.3454545454546L785,405.3272727272727C765.375,405.3272727272727,765.375,406.3454545454546,745.75,406.3454545454546C726.125,406.3454545454546,726.125,397.18181818181824,706.5,397.18181818181824C686.875,397.18181818181824,686.875,405.3272727272727,667.25,405.3272727272727C647.625,405.3272727272727,647.625,407.8909090909091,628,407.8909090909091C608.375,407.8909090909091,608.375,408.4,588.75,408.4C569.125,408.4,569.125,407.8909090909091,549.5,407.8909090909091C529.875,407.8909090909091,529.875,411.4545454545455,510.25,411.4545454545455C490.625,411.4545454545455,490.625,405.8545454545455,471,405.8545454545455C451.375,405.8545454545455,451.375,409.41818181818184,431.75000000000006,409.41818181818184C412.125,409.41818181818184,412.125,408.4,392.5,408.4C372.875,408.4,372.875,409.41818181818184,353.25,409.41818181818184C333.625,409.41818181818184,333.625,452.18181818181813,314,452.18181818181813C294.375,452.18181818181813,294.375,465.4181818181818,274.75,465.4181818181818C255.125,465.4181818181818,255.125,422.6545454545454,235.5,422.6545454545454C215.875,422.6545454545454,215.875,427.74545454545455,196.25,427.74545454545455C176.625,427.74545454545455,176.625,419.6,157,419.6C137.375,419.6,137.375,406.8727272727273,117.75,406.8727272727273C98.125,406.8727272727273,98.125,392.1090909090909,78.5,392.1090909090909C58.875,392.1090909090909,58.875,505.6363636363636,39.25,505.6363636363636C19.625,505.6363636363636,19.625,431.8,0,431.8Z"><title>sl</title></path><path fill="#2ca02c" d="M0,560C19.625,560,19.625,560,39.25,560C58.875,560,58.875,559.4909090909091,78.5,559.4909090909091C98.125,559.4909090909091,98.125,537.1272727272727,117.75,537.1272727272727C137.375,537.1272727272727,137.375,521.3636363636364,157,521.3636363636364C176.625,521.3636363636364,176.625,532.0545454545454,196.25,532.0545454545454C215.875,532.0545454545454,215.875,520.3454545454546,235.5,520.3454545454546C255.125,520.3454545454546,255.125,513.7454545454545,274.75,513.7454545454545C294.375,513.7454545454545,294.375,508.6545454545454,314,508.6545454545454C333.625,508.6545454545454,333.625,513.2181818181818,353.25,513.2181818181818C372.875,513.2181818181818,372.875,514.2363636363636,392.5,514.2363636363636C412.125,514.2363636363636,412.125,513.7272727272727,431.75000000000006,513.7272727272727C451.375,513.7272727272727,451.375,512.2,471,512.2C490.625,512.2,490.625,515.7636363636364,510.25,515.7636363636364C529.875,515.7636363636364,529.875,515.2545454545455,549.5,515.2545454545455C569.125,515.2545454545455,569.125,517.8,588.75,517.8C608.375,517.8,608.375,518.8181818181819,628,518.8181818181819C647.625,518.8181818181819,647.625,518.8,667.25,518.8C686.875,518.8,686.875,514.7272727272727,706.5,514.7272727272727C726.125,514.7272727272727,726.125,516.7636363636364,745.75,516.7636363636364C765.375,516.7636363636364,765.375,515.2363636363636,785,515.2363636363636L785,548.8363636363637C765.375,548.8363636363637,765.375,548.3272727272727,745.75,548.3272727272727C726.125,548.3272727272727,726.125,548.3272727272727,706.5,548.3272727272727C686.875,548.3272727272727,686.875,548.8363636363637,667.25,548.8363636363637C647.625,548.8363636363637,647.625,547.3272727272727,628,547.3272727272727C608.375,547.3272727272727,608.375,545.8,588.75,545.8C569.125,545.8,569.125,544.2727272727273,549.5,544.2727272727273C529.875,544.2727272727273,529.875,544.2727272727273,510.25,544.2727272727273C490.625,544.2727272727273,490.625,543.7636363636364,471,543.7636363636364C451.375,543.7636363636364,451.375,542.7454545454545,431.75000000000006,542.7454545454545C412.125,542.7454545454545,412.125,543.7636363636364,392.5,543.7636363636364C372.875,543.7636363636364,372.875,542.2363636363636,353.25,542.2363636363636C333.625,542.2363636363636,333.625,532.5818181818181,314,532.5818181818181C294.375,532.5818181818181,294.375,537.1636363636363,274.75,537.1636363636363C255.125,537.1636363636363,255.125,538.6727272727272,235.5,538.6727272727272C215.875,538.6727272727272,215.875,546.8181818181819,196.25,546.8181818181819C176.625,546.8181818181819,176.625,535.1090909090909,157,535.1090909090909C137.375,535.1090909090909,137.375,548.3272727272727,117.75,548.3272727272727C98.125,548.3272727272727,98.125,560,78.5,560C58.875,560,58.875,560,39.25,560C19.625,560,19.625,560,0,560Z"><title>ct</title></path><path fill="#1f77b4" d="M0,432.8C19.625,432.8,19.625,558.4909090909091,39.25,558.4909090909091C58.875,558.4909090909091,58.875,452.1454545454546,78.5,452.1454545454546C98.125,452.1454545454546,98.125,464.3636363636364,117.75,464.3636363636364C137.375,464.3636363636364,137.375,475.56363636363636,157,475.56363636363636C176.625,475.56363636363636,176.625,487.2727272727273,196.25,487.2727272727273C215.875,487.2727272727273,215.875,475.05454545454546,235.5,475.05454545454546C255.125,475.05454545454546,255.125,466.4181818181818,274.75,466.4181818181818C294.375,466.4181818181818,294.375,550.8545454545455,314,550.8545454545455C333.625,550.8545454545455,333.625,464.3636363636364,353.25,464.3636363636364C372.875,464.3636363636364,372.875,409.4,392.5,409.4C412.125,409.4,412.125,463.3454545454545,431.75000000000006,463.3454545454545C451.375,463.3454545454545,451.375,460.79999999999995,471,460.79999999999995C490.625,460.79999999999995,490.625,468.43636363636364,510.25,468.43636363636364C529.875,468.43636363636364,529.875,462.32727272727277,549.5,462.32727272727277C569.125,462.32727272727277,569.125,409.4,588.75,409.4C608.375,409.4,608.375,464.3636363636364,628,464.3636363636364C647.625,464.3636363636364,647.625,463.8363636363636,667.25,463.8363636363636C686.875,463.8363636363636,686.875,459.7636363636364,706.5,459.7636363636364C726.125,459.7636363636364,726.125,466.3818181818182,745.75,466.3818181818182C765.375,466.3818181818182,765.375,464.8545454545455,785,464.8545454545455L785,514.2363636363636C765.375,514.2363636363636,765.375,515.7636363636364,745.75,515.7636363636364C726.125,515.7636363636364,726.125,513.7272727272727,706.5,513.7272727272727C686.875,513.7272727272727,686.875,517.8,667.25,517.8C647.625,517.8,647.625,517.8181818181819,628,517.8181818181819C608.375,517.8181818181819,608.375,463.3636363636364,588.75,463.3636363636364C569.125,463.3636363636364,569.125,514.2545454545455,549.5,514.2545454545455C529.875,514.2545454545455,529.875,514.7636363636364,510.25,514.7636363636364C490.625,514.7636363636364,490.625,511.20000000000005,471,511.20000000000005C451.375,511.20000000000005,451.375,512.7272727272727,431.75000000000006,512.7272727272727C412.125,512.7272727272727,412.125,462.3454545454545,392.5,462.3454545454545C372.875,462.3454545454545,372.875,512.2181818181818,353.25,512.2181818181818C333.625,512.2181818181818,333.625,555.4363636363637,314,555.4363636363637C294.375,555.4363636363637,294.375,512.7454545454545,274.75,512.7454545454545C255.125,512.7454545454545,255.125,519.3454545454546,235.5,519.3454545454546C215.875,519.3454545454546,215.875,531.0545454545454,196.25,531.0545454545454C176.625,531.0545454545454,176.625,520.3636363636364,157,520.3636363636364C137.375,520.3636363636364,137.375,507.1272727272727,117.75,507.1272727272727C98.125,507.1272727272727,98.125,498.47272727272724,78.5,498.47272727272724C58.875,498.47272727272724,58.875,559,39.25,559C19.625,559,19.625,489.8181818181818,0,489.8181818181818Z"><title>cb</title></path><path fill="#ff7f0e" d="M0,490.8181818181818C19.625,490.8181818181818,19.625,547.3272727272727,39.25,547.3272727272727C58.875,547.3272727272727,58.875,393.1090909090909,78.5,393.1090909090909C98.125,393.1090909090909,98.125,407.8727272727273,117.75,407.8727272727273C137.375,407.8727272727273,137.375,420.6,157,420.6C176.625,420.6,176.625,428.74545454545455,196.25,428.74545454545455C215.875,428.74545454545455,215.875,423.6545454545454,235.5,423.6545454545454C255.125,423.6545454545454,255.125,559.4909090909091,274.75,559.4909090909091C294.375,559.4909090909091,294.375,453.18181818181813,314,453.18181818181813C333.625,453.18181818181813,333.625,410.41818181818184,353.25,410.41818181818184C372.875,410.41818181818184,372.875,463.3454545454545,392.5,463.3454545454545C412.125,463.3454545454545,412.125,410.41818181818184,431.75000000000006,410.41818181818184C451.375,410.41818181818184,451.375,406.8545454545455,471,406.8545454545455C490.625,406.8545454545455,490.625,412.4545454545455,510.25,412.4545454545455C529.875,412.4545454545455,529.875,408.8909090909091,549.5,408.8909090909091C569.125,408.8909090909091,569.125,464.3636363636364,588.75,464.3636363636364C608.375,464.3636363636364,608.375,408.8909090909091,628,408.8909090909091C647.625,408.8909090909091,647.625,406.3272727272727,667.25,406.3272727272727C686.875,406.3272727272727,686.875,398.18181818181824,706.5,398.18181818181824C726.125,398.18181818181824,726.125,407.3454545454546,745.75,407.3454545454546C765.375,407.3454545454546,765.375,406.3272727272727,785,406.3272727272727L785,463.8545454545455C765.375,463.8545454545455,765.375,465.3818181818182,745.75,465.3818181818182C726.125,465.3818181818182,726.125,458.7636363636364,706.5,458.7636363636364C686.875,458.7636363636364,686.875,462.8363636363636,667.25,462.8363636363636C647.625,462.8363636363636,647.625,463.3636363636364,628,463.3636363636364C608.375,463.3636363636364,608.375,516.8,588.75,516.8C569.125,516.8,569.125,461.32727272727277,549.5,461.32727272727277C529.875,461.32727272727277,529.875,467.43636363636364,510.25,467.43636363636364C490.625,467.43636363636364,490.625,459.79999999999995,471,459.79999999999995C451.375,459.79999999999995,451.375,462.3454545454545,431.75000000000006,462.3454545454545C412.125,462.3454545454545,412.125,513.2363636363636,392.5,513.2363636363636C372.875,513.2363636363636,372.875,463.3636363636364,353.25,463.3636363636364C333.625,463.3636363636364,333.625,507.6545454545454,314,507.6545454545454C294.375,507.6545454545454,294.375,560,274.75,560C255.125,560,255.125,474.05454545454546,235.5,474.05454545454546C215.875,474.05454545454546,215.875,486.2727272727273,196.25,486.2727272727273C176.625,486.2727272727273,176.625,474.56363636363636,157,474.56363636363636C137.375,474.56363636363636,137.375,463.3636363636364,117.75,463.3636363636364C98.125,463.3636363636364,98.125,451.1454545454546,78.5,451.1454545454546C58.875,451.1454545454546,58.875,553.4363636363637,39.25,553.4363636363637C19.625,553.4363636363637,19.625,540.709090909091,0,540.709090909091Z"><title>ch</title></path><path fill="#8c564b" d="M0,541.709090909091C19.625,541.709090909091,19.625,537.6727272727272,39.25,537.6727272727272C58.875,537.6727272727272,58.875,545.7818181818182,78.5,545.7818181818182C98.125,545.7818181818182,98.125,549.3272727272727,117.75,549.3272727272727C137.375,549.3272727272727,137.375,550.3454545454546,157,550.3454545454546C176.625,550.3454545454546,176.625,547.8181818181819,196.25,547.8181818181819C215.875,547.8181818181819,215.875,549.8363636363637,235.5,549.8363636363637C255.125,549.8363636363637,255.125,548.8363636363637,274.75,548.8363636363637C294.375,548.8363636363637,294.375,542.7272727272727,314,542.7272727272727C333.625,542.7272727272727,333.625,543.2363636363636,353.25,543.2363636363636C372.875,543.2363636363636,372.875,544.7636363636364,392.5,544.7636363636364C412.125,544.7636363636364,412.125,543.7454545454545,431.75000000000006,543.7454545454545C451.375,543.7454545454545,451.375,544.7636363636364,471,544.7636363636364C490.625,544.7636363636364,490.625,545.2727272727273,510.25,545.2727272727273C529.875,545.2727272727273,529.875,545.2727272727273,549.5,545.2727272727273C569.125,545.2727272727273,569.125,546.8,588.75,546.8C608.375,546.8,608.375,548.3272727272727,628,548.3272727272727C647.625,548.3272727272727,647.625,549.8363636363637,667.25,549.8363636363637C686.875,549.8363636363637,686.875,549.3272727272727,706.5,549.3272727272727C726.125,549.3272727272727,726.125,549.3272727272727,745.75,549.3272727272727C765.375,549.3272727272727,765.375,549.8363636363637,785,549.8363636363637L785,557.4727272727273C765.375,557.4727272727273,765.375,556.9636363636364,745.75,556.9636363636364C726.125,556.9636363636364,726.125,557.4727272727273,706.5,557.4727272727273C686.875,557.4727272727273,686.875,556.9636363636364,667.25,556.9636363636364C647.625,556.9636363636364,647.625,554.9454545454545,628,554.9454545454545C608.375,554.9454545454545,608.375,553.4181818181818,588.75,553.4181818181818C569.125,553.4181818181818,569.125,552.4,549.5,552.4C529.875,552.4,529.875,552.4,510.25,552.4C490.625,552.4,490.625,552.909090909091,471,552.909090909091C451.375,552.909090909091,451.375,552.4,431.75000000000006,552.4C412.125,552.4,412.125,552.909090909091,392.5,552.909090909091C372.875,552.909090909091,372.875,550.8727272727273,353.25,550.8727272727273C333.625,550.8727272727273,333.625,549.8545454545455,314,549.8545454545455C294.375,549.8545454545455,294.375,555.4545454545455,274.75,555.4545454545455C255.125,555.4545454545455,255.125,556.4545454545455,235.5,556.4545454545455C215.875,556.4545454545455,215.875,554.9454545454545,196.25,554.9454545454545C176.625,554.9454545454545,176.625,557.4727272727273,157,557.4727272727273C137.375,557.4727272727273,137.375,556.4545454545455,117.75,556.4545454545455C98.125,556.4545454545455,98.125,554.4363636363637,78.5,554.4363636363637C58.875,554.4363636363637,58.875,546.3272727272727,39.25,546.3272727272727C19.625,546.3272727272727,19.625,550.3636363636364,0,550.3636363636364Z"><title>sf</title></path><path fill="#9467bd" d="M0,551.3636363636364C19.625,551.3636363636364,19.625,554.4363636363637,39.25,554.4363636363637C58.875,554.4363636363637,58.875,555.4363636363637,78.5,555.4363636363637C98.125,555.4363636363637,98.125,557.4545454545455,117.75,557.4545454545455C137.375,557.4545454545455,137.375,558.4727272727273,157,558.4727272727273C176.625,558.4727272727273,176.625,555.9454545454545,196.25,555.9454545454545C215.875,555.9454545454545,215.875,557.4545454545455,235.5,557.4545454545455C255.125,557.4545454545455,255.125,556.4545454545455,274.75,556.4545454545455C294.375,556.4545454545455,294.375,556.4363636363637,314,556.4363636363637C333.625,556.4363636363637,333.625,556.9454545454545,353.25,556.9454545454545C372.875,556.9454545454545,372.875,557.9636363636364,392.5,557.9636363636364C412.125,557.9636363636364,412.125,557.4545454545455,431.75000000000006,557.4545454545455C451.375,557.4545454545455,451.375,557.4545454545455,471,557.4545454545455C490.625,557.4545454545455,490.625,553.4,510.25,553.4C529.875,553.4,529.875,553.4,549.5,553.4C569.125,553.4,569.125,557.9636363636364,588.75,557.9636363636364C608.375,557.9636363636364,608.375,559.4909090909091,628,559.4909090909091C647.625,559.4909090909091,647.625,560,667.25,560C686.875,560,686.875,560,706.5,560C726.125,560,726.125,560,745.75,560C765.375,560,765.375,560,785,560L785,560C765.375,560,765.375,560,745.75,560C726.125,560,726.125,560,706.5,560C686.875,560,686.875,560,667.25,560C647.625,560,647.625,560,628,560C608.375,560,608.375,560,588.75,560C569.125,560,569.125,556.4545454545455,549.5,556.4545454545455C529.875,556.4545454545455,529.875,556.4545454545455,510.25,556.4545454545455C490.625,556.4545454545455,490.625,560,471,560C451.375,560,451.375,560,431.75000000000006,560C412.125,560,412.125,560,392.5,560C372.875,560,372.875,560,353.25,560C333.625,560,333.625,560,314,560C294.375,560,294.375,558.4909090909091,274.75,558.4909090909091C255.125,558.4909090909091,255.125,560,235.5,560C215.875,560,215.875,557.9818181818182,196.25,557.9818181818182C176.625,557.9818181818182,176.625,560,157,560C137.375,560,137.375,560,117.75,560C98.125,560,98.125,558.4909090909091,78.5,558.4909090909091C58.875,558.4909090909091,58.875,557.4909090909091,39.25,557.4909090909091C19.625,557.4909090909091,19.625,555.4363636363637,0,555.4363636363637Z"><title>kn</title></path><path fill="#7f7f7f" d="M0,556.4363636363637C19.625,556.4363636363637,19.625,506.6363636363636,39.25,506.6363636363636C58.875,506.6363636363636,58.875,499.47272727272724,78.5,499.47272727272724C98.125,499.47272727272724,98.125,508.1272727272727,117.75,508.1272727272727C137.375,508.1272727272727,137.375,536.1090909090909,157,536.1090909090909C176.625,536.1090909090909,176.625,558.9818181818182,196.25,558.9818181818182C215.875,558.9818181818182,215.875,539.6727272727272,235.5,539.6727272727272C255.125,539.6727272727272,255.125,538.1636363636363,274.75,538.1636363636363C294.375,538.1636363636363,294.375,533.5818181818181,314,533.5818181818181C333.625,533.5818181818181,333.625,551.8727272727273,353.25,551.8727272727273C372.875,551.8727272727273,372.875,553.909090909091,392.5,553.909090909091C412.125,553.909090909091,412.125,553.4,431.75000000000006,553.4C451.375,553.4,451.375,553.909090909091,471,553.909090909091C490.625,553.909090909091,490.625,557.4545454545455,510.25,557.4545454545455C529.875,557.4545454545455,529.875,557.4545454545455,549.5,557.4545454545455C569.125,557.4545454545455,569.125,554.4181818181818,588.75,554.4181818181818C608.375,554.4181818181818,608.375,555.9454545454545,628,555.9454545454545C647.625,555.9454545454545,647.625,557.9636363636364,667.25,557.9636363636364C686.875,557.9636363636364,686.875,558.4727272727273,706.5,558.4727272727273C726.125,558.4727272727273,726.125,557.9636363636364,745.75,557.9636363636364C765.375,557.9636363636364,765.375,558.4727272727273,785,558.4727272727273L785,560C765.375,560,765.375,560,745.75,560C726.125,560,726.125,560,706.5,560C686.875,560,686.875,560,667.25,560C647.625,560,647.625,558.4909090909091,628,558.4909090909091C608.375,558.4909090909091,608.375,556.9636363636364,588.75,556.9636363636364C569.125,556.9636363636364,569.125,560,549.5,560C529.875,560,529.875,560,510.25,560C490.625,560,490.625,556.4545454545455,471,556.4545454545455C451.375,556.4545454545455,451.375,556.4545454545455,431.75000000000006,556.4545454545455C412.125,556.4545454545455,412.125,556.9636363636364,392.5,556.9636363636364C372.875,556.9636363636364,372.875,555.9454545454545,353.25,555.9454545454545C333.625,555.9454545454545,333.625,541.7272727272727,314,541.7272727272727C294.375,541.7272727272727,294.375,547.8363636363637,274.75,547.8363636363637C255.125,547.8363636363637,255.125,548.8363636363637,235.5,548.8363636363637C215.875,548.8363636363637,215.875,560,196.25,560C176.625,560,176.625,549.3454545454546,157,549.3454545454546C137.375,549.3454545454546,137.375,536.1272727272727,117.75,536.1272727272727C98.125,536.1272727272727,98.125,544.7818181818182,78.5,544.7818181818182C58.875,544.7818181818182,58.875,536.6727272727272,39.25,536.6727272727272C19.625,536.6727272727272,19.625,560,0,560Z"><title>xx</title></path></g><g id="xAxis" transform="translate(0,560)" fill="none" font-size="10" font-family="sans-serif" text-anchor="middle"><path class="domain" stroke="currentColor" d="M0,0H785"/><g class="tick" opacity="1" transform="translate(0,0)"><line stroke="currentColor" y2="6"/><text fill="currentColor" y="9" dy="0.71em">2,002</text></g><g class="tick" opacity="1" transform="translate(78.5,0)"><line stroke="currentColor" y2="6"/><text fill="currentColor" y="9" dy="0.71em">2,004</text></g><g class="tick" opacity="1" transform="translate(157,0)"><line stroke="currentColor" y2="6"/><text fill="currentColor" y="9" dy="0.71em">2,006</text></g><g class="tick" opacity="1" transform="translate(235.5,0)"><line stroke="currentColor" y2="6"/><text fill="currentColor" y="9" dy="0.71em">2,008</text></g><g class="tick" opacity="1" transform="translate(314,0)"><line stroke="currentColor" y2="6"/><text fill="currentColor" y="9" dy="0.71em">2,010</text></g><g class="tick" opacity="1" transform="translate(392.5,0)"><line stroke="currentColor" y2="6"/><text fill="currentColor" y="9" dy="0.71em">2,012</text></g><g class="tick" opacity="1" transform="translate(471,0)"><line stroke="currentColor" y2="6"/><text fill="currentColor" y="9" dy="0.71em">2,014</text></g><g class="tick" opacity="1" transform="translate(549.5,0)"><line stroke="currentColor" y2="6"/><text fill="currentColor" y="9" dy="0.71em">2,016</text></g><g class="tick" opacity="1" transform="translate(628,0)"><line stroke="currentColor" y2="6"/><text fill="currentColor" y="9" dy="0.71em">2,018</text></g><g class="tick" opacity="1" transform="translate(706.5,0)"><line stroke="currentColor" y2="6"/><text fill="currentColor" y="9" dy="0.71em">2,020</text></g><g class="tick" opacity="1" transform="translate(785,0)"><line stroke="currentColor" y2="6"/><text fill="currentColor" y="9" dy="0.71em">2,022</text></g></g><text y="556" x="785" text-anchor="end" style="font-family: Arial, sans-serif; font-size: 12px; fill: rgb(123, 123, 123); font-weight: bold;">season</text><text x="4" text-anchor="start" dominant-baseline="hanging" style="font-family: Arial, sans-serif; font-size: 12px; fill: rgb(123, 123, 123); font-weight: bold;">value</text><g id="labels"><text x="0" y="211.2727272727273" text-anchor="start" alignment-baseline="middle" style="font-family: Arial, sans-serif; font-size: 10px; fill: black; font-weight: bold;">fb</text><text x="785" y="354.8363636363636" text-anchor="end" alignment-baseline="middle" style="font-family: Arial, sans-serif; font-size: 10px; fill: black; font-weight: bold;">sl</text><text x="706.5" y="533.5272727272727" text-anchor="middle" alignment-baseline="middle" style="font-family: Arial, sans-serif; font-size: 10px; fill: black; font-weight: bold;">ct</text><text x="0" y="465.3090909090909" text-anchor="start" alignment-baseline="middle" style="font-family: Arial, sans-serif; font-size: 10px; fill: black; font-weight: bold;">cb</text><text x="706.5" y="432.47272727272724" text-anchor="middle" alignment-baseline="middle" style="font-family: Arial, sans-serif; font-size: 10px; fill: black; font-weight: bold;">ch</text><text x="0" y="548.0363636363636" text-anchor="start" alignment-baseline="middle" style="font-family: Arial, sans-serif; font-size: 10px; fill: black; font-weight: bold;">sf</text><text x="0" y="554.4" text-anchor="start" alignment-baseline="middle" style="font-family: Arial, sans-serif; font-size: 10px; fill: black; font-weight: bold;">kn</text><text x="78.5" y="525.1272727272727" text-anchor="middle" alignment-baseline="middle" style="font-family: Arial, sans-serif; font-size: 10px; fill: black; font-weight: bold;">xx</text></g></g><text x="4" y="4" style="font-family: Arial, sans-serif; font-size: 12px; fill: black; font-weight: bold; dominant-baseline: hanging;"/></g></g></svg>